<svg width="49" height="49" viewBox="0 0 49 49" fill="none" xmlns="http://www.w3.org/2000/svg">
<rect width="49" height="49" rx="2" fill="white"/>
<path d="M46.0001 47H20.2012C19.6489 47 19.2012 46.5523 19.2012 46L19.2012 3C19.2012 2.44772 19.6489 2 20.2012 2H46.0001C46.5524 2 47.0001 2.44772 47.0001 3V46C47.0001 46.5523 46.5524 47 46.0001 47Z" fill="#313532"/>
<path d="M15.0006 45.9928V3C15.0006 2.44772 14.5529 2 14.0006 2H3C2.44772 2 2 2.44772 2 3V45.9928C2 46.5451 2.44772 46.9928 3 46.9928H14.0006C14.5529 46.9928 15.0006 46.5451 15.0006 45.9928Z" fill="#9895C1"/>
<path d="M24.5 3H46L40.625 8.375L35.25 13.75L29.875 19.125L27.1875 21.8125L24.5 24.5L27.1875 27.1875L46 46H40.625H35.25H24.5H19.34H15.04H8.37504L15.04 39.335V33.96V8.375V3H19.34H24.5Z" fill="#6A66A3"/>
<path d="M3 3H15.04M3 46L13.75 35.25L19.125 29.875L24.5 24.5M15.04 3H19.34M15.04 3V8.375M15.04 46V8.375M15.04 46H19.34M15.04 46H8.37504L27.1875 27.1875M24.5 24.5L46 46H40.625H35.25H24.5H19.34M24.5 24.5L27.1875 21.8125M15.04 8.375H3M15.04 8.375H19.34M46 8.375L29.875 24.5M19.34 8.375V46M19.34 8.375V3M19.34 8.375H40.625M19.34 3H24.5H46L40.625 8.375M27.1875 21.8125L29.875 19.125L35.25 13.75L40.625 8.375M27.1875 21.8125L29.875 24.5M46 40.625L29.875 24.5" stroke="black" stroke-width="2" stroke-linecap="round" stroke-linejoin="round"/>
</svg>
