<svg width="48" height="48" viewBox="0 0 48 48" fill="none" xmlns="http://www.w3.org/2000/svg">
<path fill="white" fill-rule="evenodd" clip-rule="evenodd" d="M6.93515 7.94089C4.76165 7.94089 3 9.80854 3 12.1098V40.8287C3 43.1311 4.76165 45 6.93515 45H41.0648C43.2383 45 45 43.1311 45 40.8287V12.1098C45 9.80854 43.2383 7.94089 41.0648 7.94089H38V11.1846C38 13.4858 36.236 15.3534 34.0625 15.3534H32.6042C30.4307 15.3534 28.6667 13.4858 28.6667 11.1846L28.648 7.94089H19.3333V11.1846C19.3333 13.4858 17.5693 15.3534 15.3958 15.3534H13.9375C11.764 15.3534 10 13.4858 10 11.1846V7.94089H6.93515ZM6.5 25.2364H13.5V21.5283H6.5V25.2364ZM6.5 31.4101H13.5V27.7044H6.5V31.4101ZM6.5 37.5862H13.5V33.8806H6.5V37.5862ZM15.8333 25.2364H22.8333V21.5283H15.8333V25.2364ZM15.8333 31.4101H22.8333V27.7044H15.8333V31.4101ZM15.8333 37.5862H22.8333V33.8806H15.8333V37.5862ZM34.5 25.2364H41.5V21.5283H34.5V25.2364ZM34.5 31.4101H41.5V27.7044H34.5V31.4101ZM34.5 37.5862H41.5V33.8806H34.5V37.5862ZM25.1667 25.2364H32.1667V21.5283H25.1667V25.2364ZM25.1667 31.4101H32.1667V27.7044H25.1667V31.4101ZM25.1667 37.5862H32.1667V33.8806H25.1667V37.5862ZM13.6482 3C12.9213 3 12.3333 3.62379 12.3333 4.38962V11.4922C12.3333 12.2617 12.9213 12.8818 13.6482 12.8818H15.6875C16.412 12.8818 17 12.2617 17 11.4922V4.38962C17 3.62379 16.412 3 15.6875 3H13.6482ZM32.3101 3C31.588 3 30.9976 3.62379 30.9976 4.38962V11.4922C30.9976 12.2617 31.588 12.8818 32.3101 12.8818H34.3518C35.0786 12.8818 35.6643 12.2617 35.6643 11.4922V4.38962C35.6643 3.62379 35.0786 3 34.3518 3H32.3101Z" />
</svg>
