<svg fill="none" height="30" viewBox="0 0 30 30" width="30" xmlns="http://www.w3.org/2000/svg"><path d="m27 11.3189c0 6.7293-4.1353 8.1459-8.0232 8.606.6356.5319 1.1664 1.5935 1.1664 3.2236v3.8515c0 .5523-.4477 1-1 1h-6.5896c-.5523 0-1-.4477-1-1v-2.0103c-4.87738 1.0629-5.93737-2.3023-5.93737-2.3023-.77807-2.0182-1.94406-2.5503-1.94406-2.5503-1.59083-1.0969.14131-1.0615.14131-1.0615 1.73159.1062 2.6509 1.7705 2.6509 1.7705 1.55491 2.6917 4.13522 1.8767 5.12522 1.4521.1765-1.1336.6362-1.9475 1.1306-2.3733-3.88801-.4601-8.02327-1.8767-8.02327-8.606 0-1.91262.67153-3.47147 1.76745-4.67578-.17654-.46001-.74222-2.19571.21184-4.60378 0 0 1.41368-.46063 4.77148 1.77046 1.3785-.38918 2.934-.63753 4.4189-.63753 1.4492 0 3.0041.24835 4.4179.63753 3.3218-2.23109 4.7355-1.77046 4.7355-1.77046.9547 2.40807.3898 4.14377.2132 4.60378 1.0947 1.20438 1.7668 2.76316 1.7668 4.67578z" fill="#fff"/></svg>