<svg width="100%" height="100%" viewBox="0 0 30 30" fill="none" xmlns="http://www.w3.org/2000/svg">
<path d="M8.84303 10.7343H4.55435V25H8.84303V10.7343Z" fill="white"/>
<path d="M20.5586 10.5967C18.1013 10.5967 16.5627 11.9945 16.2771 12.9731V10.7343H11.4609C11.5216 11.9231 11.4609 25 11.4609 25H16.2771V17.2807C16.2771 16.8515 16.2582 16.4228 16.3831 16.1148C16.7144 15.2575 17.4254 14.3668 18.7042 14.3668C20.3762 14.3668 21.1363 15.6861 21.1363 17.618V25H26V17.0675C26.0006 12.6492 23.6058 10.5967 20.5586 10.5967Z" fill="white"/>
<path d="M6.61894 4C5.03564 4 4 5.06754 4 6.47648C4 7.85907 5.00608 8.95003 6.55927 8.95003H6.58938C8.20168 8.95003 9.20498 7.85555 9.20498 6.47355C9.17431 5.06519 8.20113 4 6.61894 4Z" fill="white"/>
</svg>
