<svg width="128" height="128" viewBox="0 0 128 128" fill="none" xmlns="http://www.w3.org/2000/svg">
<path d="M86.5 4C93.9556 4 100 10.0442 100 17.5V110.5C99.9999 117.955 93.9555 124 86.5 124H41.5C34.0442 124 28.0001 117.955 28 110.5V17.5C28 10.0442 34.0442 4 41.5 4H86.5ZM64 104C59.5817 104 56 107.582 56 112C56 116.418 59.5817 120 64 120C68.4183 120 72 116.418 72 112C72 107.582 68.4183 104 64 104ZM39 16.5C36.5147 16.5 34.5 18.5147 34.5 21V97L34.5059 97.2314C34.6263 99.6092 36.5923 101.5 39 101.5H89C91.4853 101.5 93.5 99.4853 93.5 97V21C93.5 18.5147 91.4853 16.5 89 16.5H39ZM88.5 21.5V96.5H39.5V21.5H88.5ZM54 8.87402C52.8954 8.87402 52 9.76945 52 10.874C52 11.9786 52.8954 12.874 54 12.874H74C75.1046 12.874 76 11.9786 76 10.874C76 9.76945 75.1046 8.87402 74 8.87402H54Z" fill="white"/>
</svg>
