<svg width="100%" height="100%" viewBox="0 0 101 101" fill="none" xmlns="http://www.w3.org/2000/svg">
    <path d="M14.1599 86.8044V62.3278M38.6365 86.8044V49.8774M63.1131 86.8044V59.0538M87.5898 86.8044V39.8909M36.3493 23.8206C37.4567 24.9279 38.9865 25.6128 40.6762 25.6128C42.366 25.6128 43.8957 24.9279 45.0033 23.8206M36.3493 23.8206C35.2419 22.7132 34.5571 21.1834 34.5571 19.4937C34.5571 16.1141 37.2967 13.3745 40.6762 13.3745C44.0556 13.3745 46.7954 16.1141 46.7954 19.4937C46.7954 21.1834 46.1104 22.7132 45.0033 23.8206M36.3493 23.8206L24.6059 35.564M45.0033 23.8206L56.7464 35.564M24.6059 35.564C23.4985 34.4566 21.9688 33.7717 20.279 33.7717C16.8995 33.7717 14.1599 36.5113 14.1599 39.8909C14.1599 43.2703 16.8995 46.01 20.279 46.01C23.6585 46.01 26.3982 43.2703 26.3982 39.8909C26.3982 38.2011 25.7133 36.6713 24.6059 35.564ZM56.7464 35.564C55.6392 36.6713 54.9543 38.2011 54.9543 39.8909C54.9543 43.2703 57.694 46.01 61.0734 46.01C64.4528 46.01 67.1926 43.2703 67.1926 39.8909C67.1926 38.2011 66.5076 36.6713 65.4005 35.564M56.7464 35.564C57.8539 34.4566 59.3837 33.7717 61.0734 33.7717C62.7631 33.7717 64.2929 34.4566 65.4005 35.564M65.4005 35.564L77.1436 23.8206M77.1436 23.8206C78.2511 24.9279 79.7809 25.6128 81.4706 25.6128C84.85 25.6128 87.5898 22.8732 87.5898 19.4937C87.5898 16.1141 84.85 13.3745 81.4706 13.3745C78.0912 13.3745 75.3515 16.1141 75.3515 19.4937C75.3515 21.1834 76.0364 22.7132 77.1436 23.8206Z" stroke="white" stroke-width="5" stroke-linecap="round" stroke-linejoin="round"/>
</svg>
