<svg width="100%" height="100%" viewBox="0 0 101 101" fill="none" xmlns="http://www.w3.org/2000/svg">
<path d="M53.4902 37.4811L45.7486 48.1248H56.6288L48.6778 59.2415M59.558 76.7127C59.4534 74.4111 59.558 68.9177 61.5458 67.1925C67.0905 62.3801 77.8661 55.1615 77.5522 41.0381C77.2384 26.9148 66.5674 14.2561 50.8748 14.2561C34.3453 14.2561 24.5112 26.9148 24.1974 41.0381C23.8835 55.1615 34.6591 62.3801 40.2038 67.1925C42.1916 68.9177 42.2962 74.4111 42.1916 76.7127M59.558 76.7127C59.958 85.2007 57.0852 85.996 50.8748 86.0236C44.6644 85.996 41.7916 85.2007 42.1916 76.7127M59.558 76.7127H42.1916" stroke="white" stroke-width="4" stroke-linecap="round" stroke-linejoin="round"/>
</svg>
