<svg width="24" height="24" viewBox="0 0 24 24" fill="none" xmlns="http://www.w3.org/2000/svg">
<path d="M20 1C20.5523 1 21 1.44772 21 2V22C21 22.5523 20.5523 23 20 23H4C3.44772 23 3 22.5523 3 22V2C3 1.44772 3.44772 1 4 1H20ZM5 20C4.72386 20 4.5 20.2239 4.5 20.5C4.5 20.7761 4.72386 21 5 21H18C18.2761 21 18.5 20.7761 18.5 20.5C18.5 20.2239 18.2761 20 18 20H5ZM5 17.5C4.72386 17.5 4.5 17.7239 4.5 18C4.5 18.2761 4.72386 18.5 5 18.5H15C15.2761 18.5 15.5 18.2761 15.5 18C15.5 17.7239 15.2761 17.5 15 17.5H5ZM5 15C4.72386 15 4.5 15.2239 4.5 15.5C4.5 15.7761 4.72386 16 5 16H16C16.2761 16 16.5 15.7761 16.5 15.5C16.5 15.2239 16.2761 15 16 15H5ZM5 12.5C4.72386 12.5 4.5 12.7239 4.5 13C4.5 13.2761 4.72386 13.5 5 13.5H16C16.2761 13.5 16.5 13.2761 16.5 13C16.5 12.7239 16.2761 12.5 16 12.5H5ZM5 10C4.72386 10 4.5 10.2239 4.5 10.5C4.5 10.7761 4.72386 11 5 11H18C18.2761 11 18.5 10.7761 18.5 10.5C18.5 10.2239 18.2761 10 18 10H5ZM5.5 2.5C4.94772 2.5 4.5 2.94772 4.5 3.5V7.5C4.5 8.05228 4.94772 8.5 5.5 8.5H11.5C12.0523 8.5 12.5 8.05228 12.5 7.5V3.5C12.5 2.94772 12.0523 2.5 11.5 2.5H5.5Z" fill="currentColor"/>
</svg>
