<svg width="24" height="24" viewBox="0 0 24 24" fill="none" xmlns="http://www.w3.org/2000/svg">
<path d="M11.7083 7.18852L4.66696 13.9683V21.2856C4.66696 21.4751 4.73134 21.6568 4.84593 21.7908C4.96053 21.9247 5.11596 22 5.27802 22L9.55776 21.9871C9.71929 21.9861 9.87394 21.9104 9.98787 21.7766C10.1018 21.6427 10.1658 21.4615 10.1658 21.2727V16.9994C10.1658 16.81 10.2301 16.6283 10.3447 16.4943C10.4593 16.3603 10.6148 16.2851 10.7768 16.2851H13.2211C13.3832 16.2851 13.5386 16.3603 13.6532 16.4943C13.7678 16.6283 13.8322 16.81 13.8322 16.9994V21.2696C13.8319 21.3636 13.8475 21.4567 13.8781 21.5436C13.9087 21.6306 13.9537 21.7096 14.0105 21.7761C14.0672 21.8427 14.1347 21.8955 14.2089 21.9316C14.2832 21.9676 14.3628 21.9862 14.4432 21.9862L18.7214 22C18.8835 22 19.0389 21.9247 19.1535 21.7908C19.2681 21.6568 19.3325 21.4751 19.3325 21.2856V13.9634L12.2927 7.18852C12.2099 7.11054 12.1068 7.06801 12.0005 7.06801C11.8942 7.06801 11.7911 7.11054 11.7083 7.18852ZM22.8308 11.7966L19.638 8.71995V2.53577C19.638 2.39368 19.5897 2.2574 19.5038 2.15692C19.4178 2.05645 19.3013 2 19.1797 2H17.041C16.9195 2 16.8029 2.05645 16.7169 2.15692C16.631 2.2574 16.5827 2.39368 16.5827 2.53577V5.77765L13.1634 2.48889C12.8353 2.17322 12.4235 2.00063 11.9986 2.00063C11.5736 2.00063 11.1619 2.17322 10.8337 2.48889L1.16632 11.7966C1.11992 11.8415 1.08152 11.8966 1.05333 11.9588C1.02514 12.021 1.00771 12.089 1.00204 12.1591C0.996366 12.2292 1.00256 12.2999 1.02026 12.3671C1.03796 12.4344 1.06683 12.497 1.10522 12.5512L2.0791 13.9353C2.11738 13.9897 2.16446 14.0347 2.21766 14.0678C2.27085 14.101 2.32911 14.1215 2.3891 14.1282C2.44909 14.135 2.50962 14.1279 2.56725 14.1072C2.62487 14.0866 2.67845 14.0529 2.72492 14.008L11.7083 5.35796C11.7911 5.27998 11.8942 5.23745 12.0005 5.23745C12.1068 5.23745 12.2099 5.27998 12.2927 5.35796L21.2764 14.008C21.3228 14.0529 21.3763 14.0867 21.4339 14.1074C21.4914 14.1281 21.5519 14.1353 21.6118 14.1287C21.6718 14.122 21.73 14.1016 21.7832 14.0687C21.8364 14.0357 21.8835 13.9909 21.9219 13.9366L22.8958 12.5525C22.9341 12.498 22.9629 12.4351 22.9803 12.3675C22.9978 12.3 23.0037 12.229 22.9977 12.1588C22.9917 12.0886 22.9738 12.0204 22.9452 11.9582C22.9165 11.8961 22.8777 11.8412 22.8308 11.7966Z" fill="currentColor"/>
</svg>
