<svg width="24" height="24" viewBox="0 0 24 24" fill="none" xmlns="http://www.w3.org/2000/svg">
<path d="M12 1C9.82441 1 7.69767 1.64514 5.88873 2.85383C4.07979 4.06253 2.66989 5.78049 1.83733 7.79048C1.00477 9.80047 0.786929 12.0122 1.21137 14.146C1.6358 16.2798 2.68345 18.2398 4.22183 19.7782C5.76021 21.3165 7.72022 22.3642 9.85401 22.7886C11.9878 23.2131 14.1995 22.9952 16.2095 22.1627C18.2195 21.3301 19.9375 19.9202 21.1462 18.1113C22.3549 16.3023 23 14.1756 23 12C22.9944 9.08433 21.8337 6.28969 19.772 4.228C17.7103 2.16631 14.9157 1.00559 12 1ZM11.7885 6.07692C12.0395 6.07692 12.2849 6.15136 12.4936 6.29083C12.7023 6.43029 12.865 6.62852 12.9611 6.86044C13.0571 7.09236 13.0823 7.34756 13.0333 7.59377C12.9843 7.83997 12.8635 8.06613 12.6859 8.24363C12.5084 8.42114 12.2823 8.54202 12.0361 8.591C11.7899 8.63997 11.5347 8.61483 11.3028 8.51877C11.0708 8.4227 10.8726 8.26002 10.7331 8.0513C10.5937 7.84257 10.5192 7.59718 10.5192 7.34615C10.5192 7.00953 10.653 6.6867 10.891 6.44867C11.129 6.21064 11.4518 6.07692 11.7885 6.07692ZM12.8462 17.9231H12C11.7756 17.9231 11.5604 17.8339 11.4017 17.6752C11.243 17.5166 11.1538 17.3013 11.1538 17.0769V12C10.9294 12 10.7142 11.9108 10.5555 11.7522C10.3968 11.5935 10.3077 11.3783 10.3077 11.1538C10.3077 10.9294 10.3968 10.7142 10.5555 10.5555C10.7142 10.3968 10.9294 10.3077 11.1538 10.3077H12C12.2244 10.3077 12.4396 10.3968 12.5983 10.5555C12.757 10.7142 12.8462 10.9294 12.8462 11.1538V16.2308C13.0706 16.2308 13.2858 16.3199 13.4445 16.4786C13.6032 16.6373 13.6923 16.8525 13.6923 17.0769C13.6923 17.3013 13.6032 17.5166 13.4445 17.6752C13.2858 17.8339 13.0706 17.9231 12.8462 17.9231Z" fill="currentColor"/>
</svg>
