<svg width="100%" height="100%" viewBox="0 0 40 40" fill="none" xmlns="http://www.w3.org/2000/svg" preserveAspectRatio="xMidYMid meet">
<path fill-rule="evenodd" clip-rule="evenodd" d="M5.75107 2.40868C8.18704 -0.0381082 12.1979 0.397425 14.2376 3.14978L16.761 6.55469C18.4206 8.79422 18.2742 11.9242 16.3041 13.903L15.8263 14.383C15.8054 14.4442 15.7548 14.6367 15.8111 15.0024C15.9375 15.8262 16.6185 17.5735 19.477 20.4448C22.3345 23.315 24.0764 24.0023 24.9035 24.1305C25.2783 24.1885 25.4744 24.1343 25.535 24.1129L26.3514 23.2928C28.1028 21.5337 30.794 21.2048 32.9624 22.3957L36.7854 24.4951C40.0589 26.2928 40.8862 30.7879 38.2039 33.4818L35.3614 36.3371C34.4658 37.2367 33.2613 37.9868 31.7913 38.1253C28.1714 38.4663 19.7305 38.0313 10.8616 29.1228C2.58139 20.8058 0.992427 13.5529 0.79138 9.97931C0.689726 8.17233 1.535 6.64351 2.61021 5.56352L5.75107 2.40868ZM11.8348 4.96693C10.821 3.59894 8.9314 3.49017 7.86748 4.55884L4.72661 7.71368C4.06642 8.37681 3.74877 9.10763 3.78813 9.80729C3.94788 12.6466 5.23115 19.1913 12.978 26.9726C21.1053 35.136 28.6116 35.3796 31.5128 35.1063C32.1055 35.0505 32.695 34.7394 33.2451 34.1869L36.0876 31.3316C37.2432 30.1711 36.9883 28.0577 35.3518 27.159L31.5288 25.0597C30.473 24.48 29.2362 24.6712 28.4678 25.443L27.5565 26.3585L26.4983 25.2833C27.5565 26.3585 27.5551 26.3599 27.5537 26.3613L27.5507 26.3641L27.5445 26.3702L27.5315 26.3829L27.5023 26.4104C27.4812 26.4298 27.457 26.4511 27.43 26.4739C27.3756 26.5194 27.3088 26.5707 27.2289 26.6249C27.0686 26.7333 26.8571 26.8513 26.5912 26.9512C26.0493 27.1551 25.3345 27.2647 24.4484 27.1274C22.7139 26.8588 20.4163 25.6641 17.3607 22.595C14.3061 19.5268 13.1135 17.2164 12.8449 15.4673C12.7075 14.5729 12.8171 13.8506 13.0215 13.3027C13.1216 13.0342 13.2396 12.8207 13.3479 12.6592C13.402 12.5786 13.4534 12.5113 13.4987 12.4566C13.5214 12.4293 13.5426 12.405 13.5619 12.3839L13.5894 12.3544L13.602 12.3413L13.608 12.3352L13.6109 12.3323C13.6123 12.3308 13.6138 12.3294 14.672 13.4045L13.6138 12.3294L14.1877 11.7529C15.0454 10.8914 15.1655 9.46136 14.3581 8.37186L11.8348 4.96693Z" fill="white"/>
</svg>
